<svg xmlns="http://www.w3.org/2000/svg" width="600" height="400" viewBox="0 0 600 400"><rect width="100%" height="100%" fill="#1E38AB"/><path fill="#ffffff" d="M144.91 208.98h21.85l-8.36-22.85q-.61-1.52-1.28-3.61t-1.33-4.52q-.62 2.43-1.28 4.54-.67 2.11-1.28 3.68zm17.44-42.76 26.97 68.69h-9.87q-1.67 0-2.71-.83-1.05-.83-1.57-2.07L170.04 218h-28.45l-5.13 14.01q-.38 1.1-1.48 2-1.09.9-2.7.9h-9.98l27.03-68.69zm42.6 22.9.72 5.51q2.28-4.37 5.41-6.86 3.14-2.5 7.41-2.5 3.37 0 5.42 1.48l-.76 8.78q-.24.86-.69 1.21-.45.36-1.21.36-.72 0-2.12-.24t-2.73-.24q-1.95 0-3.47.57t-2.73 1.64-2.14 2.59q-.92 1.52-1.73 3.47v30.02H194.6v-48.73h6.89q1.8 0 2.51.64t.95 2.3m41.33 46.55q-6.37 0-9.76-3.59-3.4-3.58-3.4-9.9v-27.22h-4.99q-.95 0-1.61-.61-.67-.62-.67-1.86v-4.65l7.84-1.29 2.47-13.3q.24-.95.9-1.47.67-.52 1.71-.52h6.08v15.34h13.02v8.36h-13.02v26.41q0 2.28 1.12 3.57 1.12 1.28 3.06 1.28 1.1 0 1.83-.26.74-.26 1.28-.55.55-.29.98-.55t.85-.26q.53 0 .86.26t.71.79l3.52 5.7q-2.57 2.13-5.89 3.23-3.33 1.09-6.89 1.09m19.47-49.49h11.78v48.73h-11.78zm13.4-14.21q0 1.52-.62 2.85t-1.64 2.33-2.4 1.59q-1.37.59-2.94.59-1.52 0-2.88-.59-1.35-.59-2.35-1.59-.99-1-1.59-2.33-.59-1.33-.59-2.85 0-1.56.59-2.94.6-1.38 1.59-2.38 1-.99 2.35-1.59 1.36-.59 2.88-.59 1.57 0 2.94.59 1.38.6 2.4 1.59 1.02 1 1.64 2.38t.62 2.94m25.51 62.94h-11.74v-39.9l-4.22-.66q-1.38-.29-2.21-.98t-.83-1.97v-4.8h7.26v-3.61q0-4.18 1.26-7.5 1.26-3.33 3.61-5.66 2.35-2.32 5.73-3.56 3.37-1.23 7.6-1.23 3.37 0 6.27.9l-.24 5.89q-.05.67-.38 1.07t-.88.62q-.55.21-1.26.28t-1.52.07q-2.09 0-3.73.45-1.64.46-2.78 1.57-1.14 1.12-1.73 2.95t-.59 4.53v3.23h12.68v8.36h-12.3zm19.28-48.73h11.78v48.73h-11.78zm13.4-14.21q0 1.52-.62 2.85t-1.64 2.33-2.4 1.59-2.94.59q-1.52 0-2.88-.59-1.35-.59-2.35-1.59t-1.59-2.33-.59-2.85q0-1.56.59-2.94t1.59-2.38q1-.99 2.35-1.59 1.36-.59 2.88-.59 1.56 0 2.94.59 1.38.6 2.4 1.59 1.02 1 1.64 2.38t.62 2.94m48.35 20.24-3.09 4.27q-.52.67-1.02 1.05t-1.45.38q-.9 0-1.75-.55-.86-.54-2.05-1.23-1.18-.69-2.82-1.24-1.64-.54-4.06-.54-3.09 0-5.42 1.11-2.33 1.12-3.87 3.21t-2.3 5.06-.76 6.72q0 3.89.83 6.93t2.4 5.11q1.56 2.06 3.8 3.13 2.23 1.07 5.03 1.07t4.54-.69q1.73-.69 2.92-1.52t2.06-1.52q.88-.68 1.98-.68 1.42 0 2.13 1.09l3.38 4.27q-1.95 2.28-4.23 3.83-2.28 1.54-4.73 2.47-2.45.92-5.03 1.3-2.59.38-5.16.38-4.51 0-8.5-1.68-3.99-1.69-6.98-4.92t-4.73-7.91q-1.73-4.68-1.73-10.66 0-5.37 1.54-9.95 1.55-4.59 4.54-7.94t7.41-5.24q4.42-1.9 10.16-1.9 5.47 0 9.57 1.75 4.11 1.76 7.39 5.04m8.17-6.03h11.78v48.73h-11.78zm13.4-14.21q0 1.52-.62 2.85t-1.64 2.33-2.4 1.59-2.94.59q-1.52 0-2.88-.59-1.35-.59-2.35-1.59t-1.59-2.33-.59-2.85q0-1.56.59-2.94t1.59-2.38q1-.99 2.35-1.59 1.36-.59 2.88-.59 1.56 0 2.94.59 1.38.6 2.4 1.59 1.02 1 1.64 2.38t.62 2.94m36.1 50.35v-8.21q-5.09.23-8.55.87-3.47.64-5.56 1.64t-2.99 2.33q-.91 1.33-.91 2.9 0 3.09 1.83 4.42 1.83 1.32 4.78 1.32 3.61 0 6.24-1.3 2.64-1.31 5.16-3.97m-24.8-25.6-2.09-3.75q8.41-7.7 20.24-7.7 4.27 0 7.64 1.4 3.38 1.4 5.7 3.9 2.33 2.49 3.54 5.96t1.21 7.6v30.78h-5.32q-1.66 0-2.56-.5t-1.43-2.02l-1.04-3.51q-1.85 1.66-3.61 2.92t-3.66 2.11q-1.9.86-4.06 1.31t-4.77.45q-3.09 0-5.7-.83-2.62-.83-4.52-2.49-1.9-1.67-2.94-4.14-1.05-2.47-1.05-5.75 0-1.85.62-3.68t2.02-3.49 3.63-3.13q2.24-1.48 5.49-2.57t7.58-1.78q4.32-.69 9.88-.83v-2.85q0-4.89-2.1-7.24-2.09-2.36-6.03-2.36-2.85 0-4.72.67-1.88.66-3.3 1.5-1.43.83-2.59 1.49-1.17.67-2.59.67-1.24 0-2.09-.64-.86-.65-1.38-1.5m47.41-32.39h11.73v70.58h-11.73z"/></svg>