<svg xmlns="http://www.w3.org/2000/svg" width="600" height="400" viewBox="0 0 600 400"><rect width="100%" height="100%" fill="#e74c3c"/><path fill="#ffffff" d="M141.535 229.925h15.51q4.27 0 7.18-1.03 2.91-1.02 4.64-2.73 1.74-1.71 2.51-3.99t.77-4.85q0-2.68-.85-4.81-.86-2.14-2.68-3.65-1.83-1.51-4.7-2.31-2.88-.8-6.93-.8h-15.45zm13.06-58.6h-13.06v23.83h12.2q7.87 0 11.89-2.85 4.01-2.85 4.01-9.06 0-6.44-3.64-9.18-3.65-2.74-11.4-2.74m-28.39-11.85h28.39q8.09 0 13.85 1.54 5.75 1.54 9.43 4.39t5.39 6.89q1.71 4.05 1.71 9.12 0 2.91-.86 5.56-.85 2.65-2.65 4.96-1.79 2.31-4.56 4.19-2.76 1.88-6.58 3.19 16.98 3.82 16.98 18.35 0 5.25-1.99 9.69-2 4.45-5.81 7.67-3.82 3.22-9.41 5.05-5.59 1.82-12.77 1.82h-31.12zm103.74 67.31v-9.86q-6.1.29-10.26 1.06t-6.67 1.96q-2.51 1.2-3.59 2.8-1.08 1.59-1.08 3.47 0 3.71 2.19 5.31 2.2 1.59 5.73 1.59 4.33 0 7.5-1.57 3.16-1.56 6.18-4.76m-29.75-30.72-2.51-4.5q10.09-9.24 24.28-9.24 5.13 0 9.18 1.69 4.04 1.68 6.84 4.67 2.79 2.99 4.24 7.15 1.46 4.16 1.46 9.12v36.94h-6.39q-1.99 0-3.07-.6-1.09-.6-1.71-2.42l-1.26-4.22q-2.22 2-4.33 3.51t-4.39 2.53q-2.28 1.03-4.87 1.57-2.6.54-5.73.54-3.71 0-6.84-1-3.14-.99-5.42-2.99-2.28-1.99-3.53-4.96-1.25-2.96-1.25-6.89 0-2.23.74-4.42.74-2.2 2.42-4.19 1.68-2 4.36-3.76 2.68-1.77 6.58-3.08 3.91-1.31 9.09-2.14 5.19-.82 11.86-1v-3.42q0-5.87-2.51-8.69t-7.24-2.82q-3.42 0-5.67.8t-3.96 1.79q-1.71 1-3.11 1.8-1.39.8-3.1.8-1.48 0-2.51-.77t-1.65-1.8m70.79-38.87v32.49q3.42-3.19 7.52-5.19 4.11-1.99 9.64-1.99 4.79 0 8.49 1.62 3.71 1.62 6.18 4.56 2.48 2.94 3.77 7.01 1.28 4.08 1.28 8.98v37.22h-14.08v-37.22q0-5.36-2.45-8.29-2.45-2.94-7.47-2.94-3.65 0-6.84 1.65-3.19 1.66-6.04 4.51v42.29h-14.08v-84.7zm81.11 69.59v-9.86q-6.1.29-10.26 1.06t-6.67 1.96q-2.51 1.2-3.59 2.8-1.08 1.59-1.08 3.47 0 3.71 2.19 5.31 2.2 1.59 5.73 1.59 4.33 0 7.5-1.57 3.16-1.56 6.18-4.76m-29.75-30.72-2.51-4.5q10.09-9.24 24.28-9.24 5.13 0 9.18 1.69 4.05 1.68 6.84 4.67t4.24 7.15q1.46 4.16 1.46 9.12v36.94h-6.39q-1.99 0-3.07-.6-1.09-.6-1.71-2.42l-1.26-4.22q-2.22 2-4.33 3.51t-4.39 2.53q-2.28 1.03-4.87 1.57-2.6.54-5.73.54-3.71 0-6.84-1-3.14-.99-5.42-2.99-2.28-1.99-3.53-4.96-1.25-2.96-1.25-6.89 0-2.23.74-4.42.74-2.2 2.42-4.19 1.68-2 4.36-3.76 2.68-1.77 6.58-3.08 3.91-1.31 9.1-2.14 5.18-.82 11.85-1v-3.42q0-5.87-2.51-8.69-2.5-2.82-7.24-2.82-3.42 0-5.67.8t-3.96 1.79q-1.71 1-3.11 1.8-1.39.8-3.1.8-1.48 0-2.51-.77t-1.65-1.8m95.59-6.33-3.2 5.08q-.57.91-1.19 1.28-.63.37-1.6.37-1.02 0-2.19-.57t-2.71-1.28-3.51-1.28q-1.96-.57-4.64-.57-4.16 0-6.53 1.76-2.36 1.77-2.36 4.62 0 1.88 1.22 3.16 1.23 1.29 3.25 2.25 2.02.97 4.59 1.74 2.56.77 5.21 1.69 2.66.91 5.22 2.08 2.57 1.16 4.59 2.96t3.25 4.3q1.22 2.51 1.22 6.04 0 4.22-1.51 7.79-1.51 3.56-4.47 6.15-2.97 2.59-7.33 4.05-4.36 1.45-10.06 1.45-3.02 0-5.9-.54-2.87-.54-5.53-1.51-2.65-.97-4.9-2.28t-3.96-2.85l3.25-5.36q.63-.97 1.48-1.48.86-.51 2.17-.51t2.48.74 2.71 1.59q1.53.86 3.61 1.6 2.09.74 5.28.74 2.51 0 4.3-.6 1.8-.6 2.96-1.57 1.17-.96 1.71-2.25.55-1.28.55-2.65 0-2.05-1.23-3.36-1.22-1.31-3.25-2.28-2.02-.97-4.62-1.74-2.59-.77-5.3-1.68-2.7-.91-5.3-2.14-2.59-1.22-4.61-3.1-2.03-1.88-3.25-4.62-1.23-2.74-1.23-6.61 0-3.59 1.43-6.84 1.42-3.25 4.19-5.67 2.76-2.43 6.89-3.88 4.14-1.45 9.55-1.45 6.04 0 11 1.99 4.96 2 8.27 5.24m42.12 37.05v-9.86q-6.1.29-10.26 1.06t-6.67 1.96q-2.51 1.2-3.59 2.8-1.08 1.59-1.08 3.47 0 3.71 2.19 5.31 2.2 1.59 5.73 1.59 4.33 0 7.49-1.57 3.17-1.56 6.19-4.76m-29.75-30.72-2.51-4.5q10.09-9.24 24.28-9.24 5.13 0 9.18 1.69 4.04 1.68 6.84 4.67 2.79 2.99 4.24 7.15 1.46 4.16 1.46 9.12v36.94h-6.39q-1.99 0-3.08-.6-1.08-.6-1.71-2.42l-1.25-4.22q-2.22 2-4.33 3.51t-4.39 2.53q-2.28 1.03-4.87 1.57-2.6.54-5.73.54-3.71 0-6.84-1-3.14-.99-5.42-2.99-2.28-1.99-3.53-4.96-1.26-2.96-1.26-6.89 0-2.23.75-4.42.74-2.2 2.42-4.19 1.68-2 4.36-3.76 2.68-1.77 6.58-3.08 3.91-1.31 9.09-2.14 5.19-.82 11.86-1v-3.42q0-5.87-2.51-8.69t-7.24-2.82q-3.42 0-5.67.8t-3.96 1.79q-1.71 1-3.11 1.8-1.39.8-3.1.8-1.49 0-2.51-.77-1.03-.77-1.65-1.8"/></svg>