<svg xmlns="http://www.w3.org/2000/svg" width="600" height="400" viewBox="0 0 600 400"><rect width="100%" height="100%" fill="#3FD1A8"/><path fill="#ffffff" d="m198.095 155.03-5.23 9.91q-.93 1.63-1.98 2.38-1.06.74-2.62.74-1.64 0-3.55-1.21t-4.56-2.69q-2.65-1.49-6.2-2.7-3.55-1.2-8.38-1.2-4.37 0-7.65 1.05t-5.5 2.92q-2.22 1.88-3.31 4.49-1.1 2.61-1.1 5.73 0 3.98 2.23 6.63 2.22 2.65 5.89 4.53 3.66 1.87 8.34 3.35t9.6 3.16q4.91 1.68 9.59 3.9t8.35 5.61q3.66 3.4 5.89 8.31 2.22 4.92 2.22 11.94 0 7.64-2.61 14.31-2.62 6.67-7.65 11.62t-12.28 7.8q-7.26 2.85-16.62 2.85-5.38 0-10.6-1.05-5.23-1.06-10.03-3.01-4.79-1.95-9.01-4.68-4.21-2.73-7.49-6.08l6.17-10.06q.78-1.1 2.02-1.84 1.25-.74 2.66-.74 1.95 0 4.21 1.6t5.38 3.55 7.29 3.55q4.18 1.6 10.03 1.6 8.97 0 13.88-4.25 4.92-4.25 4.92-12.21 0-4.45-2.23-7.25-2.22-2.81-5.89-4.72-3.66-1.91-8.34-3.24t-9.52-2.89-9.52-3.74-8.34-5.69q-3.67-3.51-5.89-8.78-2.22-5.26-2.22-12.99 0-6.16 2.45-12.01 2.46-5.85 7.14-10.37 4.68-4.53 11.54-7.26 6.87-2.73 15.76-2.73 9.98 0 18.41 3.12 8.42 3.12 14.35 8.74m59.52 81.51v-13.49q-8.35.39-14.04 1.44-5.7 1.05-9.13 2.69t-4.91 3.82q-1.49 2.19-1.49 4.76 0 5.07 3.01 7.25 3 2.19 7.84 2.19 5.92 0 10.25-2.15 4.33-2.14 8.47-6.51m-40.72-42.04-3.43-6.16q13.8-12.64 33.22-12.64 7.03 0 12.56 2.3 5.54 2.3 9.36 6.4 3.82 4.09 5.81 9.79 1.99 5.69 1.99 12.48v50.54h-8.73q-2.73 0-4.21-.82-1.49-.82-2.35-3.31l-1.71-5.78q-3.04 2.73-5.93 4.8t-6 3.47q-3.13 1.41-6.67 2.15-3.55.74-7.84.74-5.07 0-9.36-1.37-4.29-1.36-7.41-4.09t-4.84-6.79q-1.71-4.05-1.71-9.44 0-3.04 1.01-6.04t3.31-5.73 5.97-5.15 9.01-4.21q5.34-1.8 12.44-2.93t16.23-1.36v-4.68q0-8.04-3.44-11.9-3.43-3.86-9.9-3.86-4.68 0-7.76 1.09-3.09 1.09-5.43 2.46-2.33 1.36-4.25 2.46-1.91 1.09-4.25 1.09-2.02 0-3.43-1.06-1.4-1.05-2.26-2.45m78.23-17.32h19.35v80.03h-19.35zm22-23.32q0 2.5-1.01 4.68-1.02 2.18-2.7 3.82-1.67 1.64-3.93 2.62-2.27.97-4.84.97-2.5 0-4.72-.97-2.22-.98-3.86-2.62t-2.61-3.82q-.98-2.18-.98-4.68 0-2.57.98-4.84.97-2.26 2.61-3.9 1.64-1.63 3.86-2.61 2.22-.97 4.72-.97 2.57 0 4.84.97 2.26.98 3.93 2.61 1.68 1.64 2.7 3.9 1.01 2.27 1.01 4.84m33.7 26.83 1.32 6.32q2.42-2.42 5.11-4.49 2.69-2.06 5.69-3.5 3.01-1.45 6.44-2.27t7.49-.82q6.55 0 11.62 2.23 5.07 2.22 8.46 6.24 3.4 4.01 5.15 9.59 1.76 5.58 1.76 12.29v50.93h-19.27v-50.93q0-7.34-3.36-11.35-3.35-4.02-10.21-4.02-4.99 0-9.36 2.26t-8.27 6.16v57.88h-19.27v-80.03h11.78q3.75 0 4.92 3.51m124.48 5.15-4.37 6.94q-.78 1.25-1.63 1.76-.86.5-2.19.5-1.4 0-3-.78t-3.71-1.75q-2.1-.98-4.79-1.76t-6.36-.78q-5.69 0-8.93 2.42t-3.24 6.32q0 2.57 1.68 4.33 1.68 1.75 4.45 3.08 2.76 1.33 6.27 2.38t7.14 2.3 7.14 2.85 6.28 4.05q2.77 2.46 4.44 5.89 1.68 3.43 1.68 8.27 0 5.77-2.07 10.65-2.06 4.87-6.12 8.42t-10.02 5.54q-5.97 1.99-13.77 1.99-4.13 0-8.07-.74t-7.57-2.07-6.71-3.12-5.42-3.9l4.45-7.33q.86-1.33 2.03-2.03t2.96-.7 3.39 1.01q1.6 1.02 3.71 2.19 2.1 1.17 4.95 2.18t7.22 1.01q3.43 0 5.89-.81 2.45-.82 4.05-2.15t2.34-3.08q.74-1.76.74-3.63 0-2.81-1.67-4.6-1.68-1.79-4.45-3.12t-6.32-2.38-7.25-2.3q-3.71-1.25-7.26-2.92-3.55-1.68-6.31-4.26-2.77-2.57-4.45-6.31-1.68-3.75-1.68-9.05 0-4.92 1.95-9.36 1.95-4.45 5.74-7.76 3.78-3.32 9.43-5.31 5.66-1.99 13.07-1.99 8.27 0 15.05 2.73 6.79 2.73 11.31 7.18"/></svg>