<svg xmlns="http://www.w3.org/2000/svg" width="600" height="400" viewBox="0 0 600 400"><rect width="100%" height="100%" fill="#9b59b6"/><path fill="#ffffff" d="M160.31 192.285h22.56v27.5q-5.17 3.81-11.02 5.57t-12.52 1.76q-8.32 0-15.07-2.58-6.74-2.59-11.51-7.19-4.77-4.61-7.36-11-2.58-6.39-2.58-13.96 0-7.66 2.49-14.05 2.49-6.4 7.07-11 4.58-4.61 11.12-7.15 6.53-2.53 14.66-2.53 4.14 0 7.73.65 3.6.66 6.68 1.81 3.07 1.16 5.61 2.8 2.54 1.65 4.66 3.62l-3.62 5.73q-.85 1.37-2.21 1.67-1.37.31-2.96-.68-1.55-.89-3.11-1.79-1.55-.89-3.45-1.55-1.9-.65-4.28-1.08-2.37-.42-5.47-.42-5.03 0-9.1 1.69-4.06 1.69-6.93 4.84t-4.42 7.57-1.55 9.87q0 5.83 1.67 10.41t4.7 7.75q3.03 3.18 7.31 4.85 4.28 1.66 9.54 1.66 3.76 0 6.72-.8 2.96-.79 5.78-2.16v-12.31h-8.55q-1.22 0-1.91-.68-.68-.68-.68-1.67zm42.11 4.42h21.91q0-2.25-.64-4.25-.63-2-1.9-3.5-1.27-1.51-3.22-2.38t-4.54-.87q-5.03 0-7.92 2.87t-3.69 8.13m29.61 7.01h-29.84q.28 3.71 1.32 6.41 1.03 2.7 2.72 4.47 1.69 1.76 4.02 2.63t5.15.87 4.86-.66q2.05-.66 3.57-1.46 1.53-.8 2.68-1.45 1.15-.66 2.23-.66 1.46 0 2.17 1.08l3.33 4.23q-1.92 2.26-4.32 3.78-2.4 1.53-5.01 2.45-2.6.91-5.31 1.29-2.7.37-5.24.37-5.03 0-9.35-1.66-4.32-1.67-7.52-4.94-3.2-3.26-5.03-8.08t-1.83-11.16q0-4.94 1.6-9.29 1.59-4.34 4.58-7.56 2.98-3.22 7.28-5.1t9.71-1.88q4.56 0 8.41 1.45 3.86 1.46 6.63 4.26 2.77 2.79 4.35 6.86 1.57 4.06 1.57 9.28 0 2.63-.56 3.55-.57.92-2.17.92m32.76-26.32q5.36 0 9.76 1.74 4.39 1.73 7.52 4.93 3.12 3.2 4.81 7.8 1.7 4.61 1.7 10.3 0 5.73-1.7 10.33-1.69 4.61-4.81 7.85-3.13 3.25-7.52 4.99-4.4 1.73-9.76 1.73-5.4 0-9.82-1.73-4.42-1.74-7.54-4.99-3.13-3.24-4.84-7.85-1.72-4.6-1.72-10.33 0-5.69 1.72-10.3 1.71-4.6 4.84-7.8 3.12-3.2 7.54-4.93 4.42-1.74 9.82-1.74m0 40.75q6.02 0 8.91-4.05 2.89-4.04 2.89-11.84t-2.89-11.89-8.91-4.09q-6.11 0-9.04 4.11-2.94 4.11-2.94 11.87 0 7.75 2.94 11.82 2.93 4.07 9.04 4.07m50.29-17.07q2.17 0 3.76-.58 1.6-.59 2.66-1.63 1.06-1.03 1.6-2.49.54-1.45.54-3.19 0-3.57-2.14-5.67-2.14-2.09-6.42-2.09-4.27 0-6.41 2.09-2.14 2.1-2.14 5.67 0 1.69.54 3.15.54 1.45 1.6 2.51t2.68 1.65q1.62.58 3.73.58m13.12 27.45q0-1.41-.85-2.3t-2.3-1.39q-1.46-.49-3.41-.73-1.95-.23-4.14-.35-2.18-.12-4.51-.21-2.32-.09-4.53-.38-1.93 1.08-3.13 2.54t-1.2 3.39q0 1.27.64 2.37.63 1.1 2.02 1.9 1.38.8 3.59 1.25t5.41.45q3.24 0 5.59-.5 2.35-.49 3.88-1.36t2.23-2.07q.71-1.2.71-2.61m-2.31-48.74h13.87v4.33q0 2.06-2.49 2.53l-4.33.8q.99 2.5.99 5.46 0 3.57-1.43 6.46-1.44 2.89-3.97 4.91-2.54 2.02-6 3.13-3.45 1.1-7.45 1.1-1.41 0-2.72-.14-1.32-.14-2.59-.38-2.25 1.37-2.25 3.06 0 1.45 1.34 2.14 1.34.68 3.54.96 2.21.28 5.03.35t5.78.31q2.97.23 5.79.82t5.02 1.86q2.21 1.27 3.55 3.45 1.34 2.19 1.34 5.62 0 3.19-1.57 6.2-1.58 3.01-4.56 5.36-2.99 2.35-7.33 3.78-4.35 1.44-9.9 1.44-5.45 0-9.49-1.06t-6.72-2.82-4-4.07q-1.31-2.3-1.31-4.79 0-3.38 2.04-5.66 2.05-2.28 5.62-3.65-1.93-.98-3.06-2.63-1.12-1.64-1.12-4.32 0-1.08.4-2.23.39-1.16 1.17-2.28.78-1.13 1.95-2.14 1.18-1.01 2.77-1.81-3.66-1.98-5.75-5.27-2.1-3.29-2.1-7.7 0-3.58 1.44-6.47 1.43-2.89 3.99-4.93 2.56-2.05 6.07-3.13 3.5-1.08 7.63-1.08 3.11 0 5.83.64 2.73.63 4.98 1.85m31.45 1.27.7 5.45q2.26-4.32 5.36-6.79t7.33-2.47q3.34 0 5.36 1.46l-.75 8.7q-.24.84-.68 1.2-.45.35-1.2.35-.71 0-2.09-.24-1.39-.23-2.71-.23-1.92 0-3.43.56-1.5.57-2.7 1.62-1.2 1.06-2.11 2.57-.92 1.5-1.72 3.43v29.7h-11.61v-48.22h6.82q1.78 0 2.49.63.7.64.94 2.28m50.29 32.85v-8.13q-5.03.24-8.46.87-3.43.64-5.5 1.63-2.07.98-2.96 2.3-.9 1.31-.9 2.86 0 3.06 1.81 4.38 1.81 1.31 4.73 1.31 3.57 0 6.18-1.29t5.1-3.93m-24.54-25.33-2.07-3.71q8.32-7.62 20.03-7.62 4.23 0 7.56 1.39 3.34 1.39 5.64 3.86 2.31 2.46 3.51 5.89 1.19 3.43 1.19 7.52v30.46h-5.26q-1.65 0-2.54-.49-.89-.5-1.41-2l-1.03-3.48q-1.84 1.65-3.57 2.89-1.74 1.25-3.62 2.09-1.88.85-4.02 1.3-2.14.44-4.73.44-3.05 0-5.64-.82-2.58-.82-4.46-2.47-1.88-1.64-2.91-4.09-1.04-2.44-1.04-5.68 0-1.84.61-3.65t2-3.45q1.39-1.65 3.6-3.1 2.2-1.46 5.42-2.54t7.5-1.76q4.28-.69 9.78-.83v-2.82q0-4.84-2.07-7.16-2.07-2.33-5.97-2.33-2.82 0-4.68.66-1.85.66-3.26 1.48t-2.56 1.48q-1.16.66-2.57.66-1.22 0-2.06-.64-.85-.63-1.37-1.48m61.76 37.79h-11.61v-39.48l-4.18-.66q-1.36-.28-2.19-.96-.82-.68-.82-1.95v-4.75h7.19v-3.57q0-4.14 1.25-7.43 1.24-3.29 3.57-5.59t5.66-3.53q3.34-1.22 7.52-1.22 3.34 0 6.21.9l-.24 5.82q-.05.66-.37 1.06-.33.4-.87.61t-1.25.28q-.7.07-1.5.07-2.07 0-3.69.45t-2.75 1.55q-1.13 1.11-1.72 2.92t-.59 4.49v3.19h12.55v8.27h-12.17zm19.08-48.22h11.66v48.22h-11.66zm13.26-14.05q0 1.5-.61 2.82-.62 1.31-1.63 2.3t-2.37 1.57q-1.36.59-2.91.59-1.51 0-2.85-.59-1.34-.58-2.32-1.57-.99-.99-1.58-2.3-.59-1.32-.59-2.82 0-1.56.59-2.92t1.58-2.35q.98-.99 2.32-1.57 1.34-.59 2.85-.59 1.55 0 2.91.59 1.36.58 2.37 1.57t1.63 2.35q.61 1.36.61 2.92"/></svg>