<svg xmlns="http://www.w3.org/2000/svg" width="600" height="400" viewBox="0 0 600 400"><rect width="100%" height="100%" fill="#3498db"/><path fill="#ffffff" d="M168.385 175.83h6.91v49.16h-8.06v-31.76q0-1.9.2-4.11l-14.86 27.91q-1.05 2.01-3.23 2.01h-1.29q-2.17 0-3.23-2.01l-15.03-28.01q.1 1.12.17 2.21t.07 2v31.76h-8.06v-49.16h6.91q.61 0 1.05.03t.8.17.64.44q.29.31.57.82l14.72 27.3q.57 1.09 1.07 2.24.49 1.16.97 2.38.47-1.25.98-2.43.51-1.17 1.09-2.26l14.52-27.23q.27-.51.58-.82.3-.3.66-.44t.8-.17 1.05-.03m34.96 40.15v-5.88q-3.64.17-6.12.63-2.49.46-3.98 1.17-1.5.71-2.14 1.67-.65.95-.65 2.07 0 2.21 1.31 3.16t3.42.95q2.58 0 4.47-.93 1.88-.94 3.69-2.84m-17.75-18.33-1.5-2.68q6.02-5.51 14.49-5.51 3.06 0 5.47 1 2.41 1.01 4.08 2.79 1.67 1.79 2.53 4.27.87 2.48.87 5.44v22.03h-3.81q-1.19 0-1.83-.36-.65-.35-1.02-1.44l-.75-2.52q-1.33 1.19-2.59 2.09-1.25.9-2.61 1.52-1.36.61-2.91.93t-3.42.32q-2.21 0-4.08-.59-1.87-.6-3.23-1.79t-2.11-2.95q-.74-1.77-.74-4.12 0-1.32.44-2.63t1.44-2.5q1.01-1.19 2.6-2.25 1.6-1.05 3.93-1.83t5.42-1.28q3.1-.49 7.08-.59v-2.04q0-3.5-1.5-5.19-1.5-1.68-4.32-1.68-2.04 0-3.38.48-1.34.47-2.36 1.07-1.03.59-1.86 1.07-.83.47-1.85.47-.88 0-1.5-.46-.61-.45-.98-1.07m45.46 27.88q-4.56 0-6.99-2.56-2.43-2.57-2.43-7.09V196.4h-3.57q-.68 0-1.16-.45-.47-.44-.47-1.32v-3.33l5.61-.92 1.76-9.52q.17-.68.65-1.06.48-.37 1.22-.37h4.36v10.98h9.31v5.99h-9.31v18.9q0 1.63.79 2.55.8.92 2.2.92.78 0 1.31-.19.52-.19.91-.39.4-.2.7-.39.31-.19.61-.19.38 0 .62.19.23.19.51.56l2.51 4.08q-1.83 1.53-4.21 2.31t-4.93.78m20.29-21.99h15.85q0-1.64-.46-3.08-.46-1.45-1.38-2.53-.92-1.09-2.33-1.72t-3.28-.63q-3.64 0-5.73 2.07-2.09 2.08-2.67 5.89m21.42 5.06h-21.59q.21 2.69.96 4.64.74 1.96 1.97 3.23 1.22 1.28 2.9 1.91 1.69.63 3.73.63t3.52-.48 2.58-1.05q1.11-.58 1.94-1.06.83-.47 1.61-.47 1.06 0 1.57.78l2.41 3.06q-1.39 1.63-3.13 2.73-1.73 1.11-3.62 1.77-1.88.67-3.84.94-1.95.27-3.79.27-3.64 0-6.77-1.21-3.12-1.2-5.44-3.57-2.31-2.36-3.63-5.85-1.33-3.48-1.33-8.07 0-3.57 1.16-6.72 1.15-3.14 3.31-5.47t5.27-3.69 7.02-1.36q3.3 0 6.09 1.06 2.79 1.05 4.79 3.07 2.01 2.03 3.15 4.97t1.14 6.71q0 1.91-.41 2.57t-1.57.66m16.66 16.39h-8.39v-34.88h5.13q1.63 0 2.14 1.53l.55 2.58q.91-1.02 1.92-1.87 1-.85 2.14-1.46t2.45-.97 2.87-.36q3.3 0 5.42 1.79 2.13 1.78 3.18 4.74.82-1.73 2.04-2.98 1.23-1.24 2.69-2.02t3.11-1.15q1.65-.38 3.31-.38 2.89 0 5.14.89 2.24.88 3.77 2.58t2.33 4.15.8 5.61v22.2h-8.4v-22.2q0-3.33-1.46-5.02-1.46-1.68-4.28-1.68-1.3 0-2.4.44-1.11.44-1.94 1.28-.83.83-1.31 2.09-.47 1.26-.47 2.89v22.2h-8.44v-22.2q0-3.5-1.41-5.1t-4.13-1.6q-1.83 0-3.42.9-1.58.9-2.94 2.47zm66.98-9.01v-5.88q-3.63.17-6.12.63-2.48.46-3.97 1.17-1.5.71-2.15 1.67-.64.95-.64 2.07 0 2.21 1.31 3.16t3.41.95q2.59 0 4.47-.93 1.89-.94 3.69-2.84m-17.74-18.33-1.5-2.68q6.02-5.51 14.48-5.51 3.06 0 5.48 1 2.41 1.01 4.08 2.79 1.66 1.79 2.53 4.27t.87 5.44v22.03h-3.81q-1.19 0-1.84-.36-.64-.35-1.02-1.44l-.74-2.52q-1.33 1.19-2.59 2.09t-2.62 1.52q-1.36.61-2.9.93-1.55.32-3.42.32-2.21 0-4.08-.59-1.87-.6-3.23-1.79t-2.11-2.95q-.75-1.77-.75-4.12 0-1.32.45-2.63.44-1.31 1.44-2.5t2.6-2.25q1.6-1.05 3.93-1.83t5.42-1.28q3.1-.49 7.07-.59v-2.04q0-3.5-1.49-5.19-1.5-1.68-4.32-1.68-2.04 0-3.38.48-1.35.47-2.37 1.07l-1.85 1.07q-.83.47-1.85.47-.89 0-1.5-.46-.61-.45-.98-1.07m45.45 27.88q-4.55 0-6.98-2.56-2.43-2.57-2.43-7.09V196.4h-3.57q-.68 0-1.16-.45-.48-.44-.48-1.32v-3.33l5.61-.92 1.77-9.52q.17-.68.65-1.06.47-.37 1.22-.37h4.35v10.98h9.32v5.99h-9.32v18.9q0 1.63.8 2.55t2.2.92q.78 0 1.3-.19.53-.19.92-.39t.7-.39.61-.19q.38 0 .61.19.24.19.51.56l2.52 4.08q-1.84 1.53-4.22 2.31t-4.93.78m13.94-35.42h8.44v34.88h-8.44zm9.59-10.17q0 1.09-.44 2.04t-1.17 1.67q-.73.71-1.72 1.13-.99.43-2.11.43-1.09 0-2.06-.43-.96-.42-1.68-1.13-.71-.72-1.14-1.67-.42-.95-.42-2.04 0-1.12.42-2.11.43-.98 1.14-1.7.72-.71 1.68-1.14.97-.42 2.06-.42 1.12 0 2.11.42.99.43 1.72 1.14.73.72 1.17 1.7.44.99.44 2.11m7.41-5.47h8.4v28.93h1.57q.85 0 1.34-.22t1-.9l8.67-10.71q.55-.72 1.21-1.09t1.72-.37h7.68l-10.85 12.95q-1.15 1.53-2.51 2.35.71.51 1.27 1.19t1.07 1.46l11.63 16.93h-7.58q-.99 0-1.7-.32-.71-.33-1.19-1.18l-8.91-13.22q-.47-.78-.98-1.02t-1.53-.24h-1.91v15.98h-8.4zm54.78 41.51v-5.88q-3.64.17-6.12.63t-3.98 1.17-2.14 1.67q-.65.95-.65 2.07 0 2.21 1.31 3.16t3.42.95q2.58 0 4.47-.93 1.89-.94 3.69-2.84m-17.75-18.33-1.5-2.68q6.02-5.51 14.49-5.51 3.06 0 5.47 1 2.42 1.01 4.08 2.79 1.67 1.79 2.53 4.27.87 2.48.87 5.44v22.03h-3.81q-1.19 0-1.83-.36-.65-.35-1.02-1.44l-.75-2.52q-1.33 1.19-2.58 2.09-1.26.9-2.62 1.52-1.36.61-2.91.93t-3.42.32q-2.21 0-4.08-.59-1.87-.6-3.23-1.79t-2.1-2.95q-.75-1.77-.75-4.12 0-1.32.44-2.63t1.44-2.5q1.01-1.19 2.61-2.25 1.59-1.05 3.92-1.83t5.43-1.28q3.09-.49 7.07-.59v-2.04q0-3.5-1.5-5.19-1.49-1.68-4.32-1.68-2.04 0-3.38.48-1.34.47-2.36 1.07-1.02.59-1.86 1.07-.83.47-1.85.47-.88 0-1.49-.46-.62-.45-.99-1.07"/></svg>